<?xml version="1.0" encoding="UTF-8" standalone="no"?><!DOCTYPE svg PUBLIC "-//W3C//DTD SVG 1.1//EN" "http://www.w3.org/Graphics/SVG/1.1/DTD/svg11.dtd"><svg width="100%" height="100%" viewBox="0 0 500 300" version="1.1" xmlns="http://www.w3.org/2000/svg" xmlns:xlink="http://www.w3.org/1999/xlink" xml:space="preserve" xmlns:serif="http://www.serif.com/" style="fill-rule:evenodd;clip-rule:evenodd;stroke-linejoin:round;stroke-miterlimit:2;"><g id="Screenshot-2026-03-31-at-7.02.36-PM.png" serif:id="Screenshot 2026-03-31 at 7.02.36 PM.png"><path d="M499.999,80.5l0,142c-6.23,0.567 -6.224,0.227 -12.499,0.228c-38.88,0.004 -485.586,0.053 -486,0.013c-0.504,-0.049 -0.996,-0.192 -1.5,-0.241l0,-142c0.519,-0.069 0.981,-0.396 1.5,-0.465c0.006,-0.001 497,-0 497,-0c0.519,0.069 0.98,0.397 1.499,0.466Z" style="fill:#37589d;"/><path d="M30.536,89.945c4.724,-0.124 4.723,-0.064 72.964,-0.136c12.135,-0.013 19.472,-1.173 29.748,7.984c3.368,3.001 6.402,9.107 7.352,12.678c1.395,5.247 1.135,5.335 1.215,54.028c0.014,8.386 0.837,16.556 -4.518,24.876c-9.17,14.245 -24.365,13.101 -26.797,13.091c-0.683,-0.003 -2.695,0.278 -2.909,-1.974c-0.068,-0.72 -0.042,-14.712 -0.04,-15.991c0.007,-3.884 1.165,-3.457 2.93,-4.058c11.426,-3.89 16.067,-13.292 16.585,-18.977c0.857,-9.388 -1.694,-16.647 -8.729,-22.778c-5.437,-4.738 -7.991,-3.241 -9.552,-7.291c-2.084,-5.407 -2.237,-6.955 -8.986,-13.227c-5.064,-4.706 -7.447,-5.704 -10.442,-7.394c-8.686,-4.902 -20.761,-3.215 -23.836,-2.206c-10.808,3.546 -14.106,6.589 -16.339,8.568c-8.947,7.929 -7.942,10.7 -9.746,15.333c-1.057,2.714 -4.545,1.626 -10.163,6.779c-10.168,9.326 -7.512,21.041 -7.11,23.326c0.525,2.987 4.87,15.67 16.483,19.486c8.766,2.881 19.949,-0.583 23.717,-2.812c5.866,-3.47 10.236,-10.607 10.264,-10.638c2.309,-2.534 5.807,0.955 12.591,-6.37c1.774,-1.915 5.165,-6.949 3.652,-8.981c-1.939,-2.605 -2.686,-1.739 -5.592,-4.365c-4.396,-3.974 -5.314,-2.943 -9.669,-6.553c-2.776,-2.302 -3.542,-1.937 -6.213,1.07c-5.008,5.639 -2.957,6.573 -4.2,17.055c-0.42,3.539 -4.126,7.188 -5.701,8.027c-9.221,4.91 -14.316,2.518 -18.149,0.296c-0.436,-0.253 -3.078,-1.784 -4.356,-4.543c-3.965,-8.559 0.113,-13.815 1.461,-15.785c2.611,-3.819 8.626,-4.601 9.857,-5.318c2.108,-1.228 1.786,-6.571 8.086,-13.735c6.342,-7.213 12.225,-8.457 14.09,-8.965c4.011,-1.09 9.813,-0.65 12.027,0.017c5.454,1.643 5.696,1.259 10.184,4.776c11.062,8.669 7.756,16.502 9.772,18.306c0.386,0.345 2.534,0.711 3.062,0.869c6.326,1.889 7.048,3.415 8.163,4.957c3.768,5.215 4.569,10.533 0.636,16.013c-2.017,2.81 -2.188,2.716 -5.735,4.326c-7.018,3.185 -10.815,-0.08 -11.679,1.972c-0.326,0.774 -0.031,27.976 -0.132,28.855c-0.272,2.378 -1.61,1.975 -9.283,1.988c-48.993,0.084 -51.303,0.156 -53.003,0.018c-11.384,-0.922 -15.244,-5.155 -20.609,-10.439c-3.593,-3.539 -6.242,-11.114 -6.604,-16.588c-0.09,-1.366 -0.116,-56.877 -0.114,-57.019c0.08,-10.173 5.867,-17.852 7.3,-19.027c5.683,-4.663 7.213,-7.674 18.068,-9.523Z" style="fill:#fdfefe;"/><path d="M381.498,88.87c1.579,0.092 2.986,-0.326 3.071,2.628c0.097,3.36 -0.122,45.699 0.286,57.993c0.105,3.174 -1.162,2.766 -4.342,2.692c-4.183,-0.098 -1.281,-5.18 -2.834,-5.94c-1.014,-0.497 -1.123,-0.277 -1.84,0.587c-1.553,1.871 -1.141,2.406 -6.104,5.117c-3.502,1.913 -15.631,3.817 -22.522,-7.286c-0.411,-0.662 -5.242,-11.465 -1.297,-23.009c1.159,-3.392 2.029,-5.907 6.381,-9.414c4.376,-3.526 15.557,-6.75 22.484,0.963c0.07,0.078 0.85,0.946 0.891,0.959c0.462,0.142 1.402,-0.508 1.476,-0.769c0.152,-0.53 -0.099,-0.541 -0.105,-6.89c-0.008,-7.509 0.116,-7.487 -0.081,-14.996c-0.084,-3.208 1.328,-2.467 4.536,-2.635Z" style="fill:#fafbfc;"/><path d="M200.909,124.464c-0.076,-0.543 0.108,-2.509 -2.326,-6.028c-2.11,-3.051 -6.784,-3.868 -10.003,-2.697c-3.648,1.328 -5.31,4.256 -5.482,4.506c-3.486,5.052 -0.463,29.924 -2.086,31.816c-0.687,0.8 -6.077,1.226 -6.708,-0.47c-0.43,-1.155 -0.045,-27.346 -0.359,-37.111c-0.105,-3.249 -0.686,-4.625 2.564,-4.543c2.844,0.071 3.853,0.228 3.85,2.578c-0.001,0.678 -0.083,1.356 -0.067,2.034c0.051,2.076 1.564,2.012 2.37,0.086c0.131,-0.312 0.793,-1.894 2.83,-3.148c10.283,-6.332 18.251,0.058 19.727,3.182c0.634,1.342 0.352,1.733 1.281,1.829c0.772,0.08 0.785,-0.021 1.277,-0.64c0.875,-1.101 0.846,-1.098 0.922,-1.192c4.739,-5.953 12.761,-7.412 18.866,-4.285c1.818,0.931 4.888,4.668 5.992,8.097c1.272,3.954 1.382,5.312 1.373,10.02c-0.038,18.683 0.264,21.989 -0.226,23.122c-0.592,1.369 -5.216,1.009 -5.905,0.495c-1.458,-1.089 -0.068,-11.462 -0.922,-26.643c-0.342,-6.071 -4.153,-9.516 -7.339,-10.166c-6.501,-1.326 -11.317,4.107 -12.263,8.14c-0.709,3.024 0.172,26.518 -0.499,28.205c-0.554,1.392 -5.824,1.431 -6.414,-0.085c-0.545,-1.399 0.169,-20.246 -0.453,-27.102Z" style="fill:#fafbfc;"/><path d="M428.132,129.501c0.027,15.627 -0.023,15.618 0.462,19.99c0.23,2.073 -0.022,2.493 -2.112,2.638c-4.3,0.298 -4.334,-0.71 -4.67,-2.71c-0.63,-3.741 -2.825,-0.395 -4.413,0.965c-3.859,3.306 -15.209,5.749 -20.769,-2.963c-2.353,-3.687 -4.384,-14.345 7.951,-19.729c5.781,-2.523 13.995,-2.448 15.077,-2.927c2.206,-0.975 0.085,-8.14 -3.973,-9.701c-7.321,-2.817 -13.849,1.596 -15.19,1.541c-1.498,-0.062 -3.146,-4.015 -1.054,-5.191c7.475,-4.204 23.168,-5.482 27.216,6.026c1.657,4.712 1.47,5.949 1.476,12.062Z" style="fill:#f9fafb;"/><path d="M459.074,141.509c0.045,-2.005 -0.334,-6.151 4.548,-10.883c6.472,-6.274 18.318,-5.255 19.971,-5.958c2.044,-0.87 0.494,-7.149 -3.124,-9.115c-7.197,-3.909 -14.364,0.792 -15.96,0.712c-1.466,-0.073 -2.744,-3.651 -1.071,-4.837c5.475,-3.882 19.824,-5.152 24.463,1.829c4.21,6.335 3.671,9.926 3.69,23.243c0.019,14.025 0.886,14.267 0.025,15.116c-0.616,0.607 -2.855,0.504 -3.106,0.493c-2.243,-0.103 -2.468,-0.436 -2.731,-2.673c-0.234,-1.993 -1.028,-2.58 -2.421,-1.137c-0.869,0.9 -6.148,6.366 -14.945,4.611c-2.739,-0.546 -3.306,-1.158 -4.285,-1.951c-4.579,-3.71 -4.838,-6.878 -5.053,-9.449Z" style="fill:#f8fafb;"/><path d="M297.89,124.5c-0.02,-13.17 -0.49,-13.396 0.382,-14.255c0.185,-0.182 0.674,-0.664 3.213,-0.464c3.124,0.247 2.23,1.543 2.294,4.662c0.017,0.809 -0.158,1.092 0.661,1.188c1.265,0.148 1.166,-0.245 1.932,-1.253c4.115,-5.413 13.379,-7.512 19.276,-4.173c9.2,5.211 8.515,13.147 8.522,23.294c0.012,17.43 0.104,17.566 -0.487,18.168c-1.116,1.138 -5.991,0.429 -6.014,0.42c-1.223,-0.48 -0.979,-1.759 -1.01,-12.588c-0.034,-11.962 0.589,-17.271 -3.351,-21.843c-2.619,-3.039 -10.25,-4.437 -15.291,1.422c-3.602,4.187 -3.024,4.691 -3,17.422c0.028,14.555 0.27,14.908 -0.811,15.523c-0.545,0.31 -3.407,0.295 -3.704,0.294c-2.829,-0.015 -2.591,-0.99 -2.589,-3.819c-0.008,-8 -0.015,-15.999 -0.023,-23.999Z" style="fill:#fafbfc;"/><path d="M276.075,115.501c-0.001,-0.327 -0.008,-3.895 0.028,-4.084c0.313,-1.656 0.712,-1.561 2.408,-1.607c3.503,-0.095 5.115,-0.278 5.183,2.682c0.08,3.449 0.077,23.008 0.076,25.008c-0.002,13.516 0.59,13.899 -0.543,14.569c-0.655,0.387 -3.422,0.292 -3.72,0.282c-2.841,-0.097 -2.264,-2.474 -2.188,-3.829c0.077,-1.38 0.552,-2.055 -0.82,-2.02c-0.784,0.02 -0.748,0.174 -1.143,0.835c-3.184,5.322 -11.55,7.602 -17.965,5.471c-4.462,-1.482 -5.138,-3.713 -5.333,-3.997c-3.955,-5.765 -3.988,-7.639 -3.991,-18.309c-0,-1.28 -0.003,-14.004 -0.011,-16.002c-0.013,-3.228 -0.779,-4.608 2.455,-4.653c3.253,-0.046 4.563,-0.604 4.584,2.659c0.133,20.492 -0.557,23.63 1.172,29.077c2.438,7.68 15.382,7.144 19.098,-0.147c0.61,-1.196 0.764,-1.245 0.727,-19.932c-0.005,-2.001 -0.011,-4.001 -0.016,-6.002Z" style="fill:#fafbfc;"/><path d="M377.067,132.5c-0.012,0.616 0.141,3.289 -0.61,5.988c-1.524,5.483 -5.095,6.751 -5.836,7.216c-5.951,3.733 -13.946,0.053 -16.08,-3.234c-0.582,-0.896 -3.74,-5.761 -3.165,-12.978c0.486,-6.106 2.916,-9.104 3.436,-9.747c4.875,-6.015 13.162,-7.194 18.787,-1.339c3.737,3.889 3.471,7.068 3.468,14.094Z" style="fill:#37579b;"/><path d="M441.153,96.501c-0.004,-0.485 -0.052,-5.766 0.004,-6.067c0.305,-1.644 0.693,-1.562 2.358,-1.62c4.073,-0.14 5.183,-0.052 5.237,2.68c0.009,0.454 0.048,22.624 0.05,24.005c0.041,35.299 0.102,35.42 -0.376,35.941c-0.268,0.292 -0.88,0.96 -4.907,0.677c-1.441,-0.101 -1.809,-0.569 -1.91,-0.697c-0.818,-1.04 -0.383,-1.224 -0.455,-54.92Z" style="fill:#fdfefc;"/><path d="M229.212,194.5c-0,0.049 0.225,3.752 -0.57,4.183c-2.335,1.267 -2.402,-1.914 -2.407,-2.173c-0.047,-2.242 0.037,-13.039 -0.053,-21.024c-0.003,-0.253 -0.042,-3.733 2.379,-2.077c0.232,0.158 -0.071,0.679 1.09,0.682c0.822,0.002 1.576,-0.878 3.877,-1.485c5.624,-1.483 11.318,3.675 9.884,11.876c-0.732,4.185 -4.113,9.752 -12.917,6.472c-0.797,-0.297 -1.048,-0.39 -1.262,0.427c-0.063,0.241 -0.002,0.23 -0.021,3.119Z" style="fill:#f0f5f9;"/><path d="M485.425,173.429c0.106,-0.701 0.292,-0.657 0.289,-1.913c-0.009,-2.879 -0.42,-7.302 0.906,-7.59c1.471,-0.32 1.663,1.417 1.683,1.602c0.075,0.678 -0.095,19.679 0.087,22.966c0.109,1.981 -0.162,2.987 -1.887,2.002c-0.396,-0.226 -0.597,-0.754 -1.028,-0.905c-0.411,-0.144 -2.897,2.515 -7.931,1.634c-8.384,-1.466 -8.481,-18.458 1.974,-19.342c1.071,-0.09 3.037,0.371 3.888,0.853c0.937,0.531 0.961,0.438 2.019,0.693Z" style="fill:#eff4f7;"/><path d="M190.825,182.498c0.009,-0.088 -0.092,-4.84 2.93,-7.714c2.237,-2.128 5.433,-2.574 6.761,-2.429c5.098,0.555 6.469,4.524 6.784,5.231c2.031,4.555 0.874,14.813 -7.802,14.406c-8.193,-0.384 -8.496,-7.245 -8.673,-9.494Z" style="fill:#ecf2f6;"/><path d="M338.208,181.512c-0.039,1.063 0.357,9.058 -7.694,10.177c-2.057,0.286 -5.672,-0.199 -7.113,-2.111c-4.965,-6.588 -2.043,-15.275 3.147,-16.916c0.738,-0.233 5.705,-1.804 9.36,2.474c2.181,2.553 2.1,4.774 2.301,6.375Z" style="fill:#f0f4f7;"/><path d="M246.987,182.49c0.059,-0.691 0.081,-3.165 1.124,-5.179c4.511,-8.713 15.094,-5.289 16.052,3.234c1.202,10.699 -9.172,13.971 -14.026,9.419c-2.728,-2.558 -2.845,-4.784 -3.149,-7.475Z" style="fill:#eef3f7;"/><path d="M466.12,140.509c0.002,-0.032 -0.794,-5.676 6.461,-8.804c2.093,-0.902 7.645,-1.625 9.93,-1.559c2.806,0.081 2.456,1.819 2.391,6.361c-0.097,6.845 -3.461,8.288 -5.199,9.347c-5.52,3.365 -10.733,1.016 -12.322,-1.259c-1.361,-1.948 -1.119,-2.831 -1.261,-4.086Z" style="fill:#365699;"/><path d="M421.024,134.501c-0.03,3.982 0.201,7.643 -4.389,11.183c-4.183,3.226 -12.414,2.733 -13.958,-3.22c-0.448,-1.726 -0.66,-7.197 4.853,-9.909c5.347,-2.631 11.979,-2.269 12.032,-2.255c1.492,0.393 1.385,2.384 1.463,4.201Z" style="fill:#37579a;"/><path d="M412.034,185.503c-0.053,-2.514 -0.044,-2.494 -0.066,-5.01c-0.073,-8.256 -6.604,-5.554 -8.311,-2.924c-1.24,1.911 0.011,11.988 -1.029,13.054c-0.122,0.125 -1.089,1.115 -2.188,-0.069c-0.451,-0.486 -0.454,-3.728 -0.454,-4.055c-0.001,-0.968 -0.01,-11.505 0.029,-12.102c0.1,-1.542 1.203,-2.298 2.484,-0.895c0.165,0.181 0.087,0.559 0.307,0.667c0.51,0.251 2.7,-1.324 3.693,-1.673c5.008,-1.758 6.878,2.521 7.925,2.403c0.649,-0.073 2.8,-2.993 6.085,-2.844c6.787,0.309 6.208,9.365 6.12,16.449c-0.003,0.225 -0.028,2.259 -1.214,2.534c-1.818,0.422 -1.869,-2.288 -1.874,-2.541c-0.125,-6.636 0.87,-12.394 -3.173,-13.531c-2.646,-0.744 -4.529,2.205 -4.762,2.57c-0.728,1.14 -0.435,6.101 -0.468,10.955c-0.002,0.246 -0.018,2.665 -1.626,2.613c-0.18,-0.006 -1.146,-0.037 -1.512,-1.66c-0.064,-0.286 -0.032,-0.28 0.035,-3.942Z" style="fill:#ecf0f5;"/><path d="M290.545,190.684c-6.976,3.156 -10.848,-0.418 -10.84,-4.183c0.013,-6.038 7.913,-6.837 8.804,-6.928c0.75,-0.076 2.638,0.014 2.801,-1.12c0.285,-1.984 -2.266,-4.282 -5.753,-3.629c-0.702,0.132 -1.388,0.342 -2.09,0.474c-2.301,0.434 -2.915,-1.46 -0.761,-2.351c2.287,-0.946 11.465,-2.703 11.743,6.556c0.12,4.014 0.097,8.801 0.108,8.997c0.012,0.204 0.126,2.144 -0.404,2.524c-0.766,0.549 -2.037,-0.324 -2.597,-0.68c-0.337,0.113 -0.674,0.227 -1.01,0.34Z" style="fill:#eef2f6;"/><path d="M452.862,181.522c0.341,-2.64 0.388,-2.836 0.446,-3.078c0.711,-2.982 2.977,-4.825 3.18,-4.962c6.126,-4.121 11.474,0.27 11.784,6.044c0.175,3.259 -2.097,2.701 -9.776,2.755c-2.154,0.015 -2.87,0.185 -2.42,2.285c0.441,2.059 2.074,4.654 6.436,4.6c0.622,-0.008 5.68,-1.236 4.216,1.501c-0.416,0.778 -7.233,1.923 -10.524,-0.76c-3.688,-3.006 -3.33,-7.012 -3.341,-8.385Z" style="fill:#ebf0f4;"/><path d="M172.131,179.518c0.158,1.544 0.358,8.614 8.395,9.839c3.51,0.535 6.06,-1.05 6.966,0.149c1.382,1.829 -2.661,2.28 -2.96,2.313c-9.127,1.018 -12.311,-3.015 -13.77,-5.474c-2.611,-4.399 -4.461,-18.337 8.695,-21.055c5.554,-1.147 7.937,1.043 8.003,1.228c0.686,1.908 -1.727,1.662 -1.928,1.641c-0.4,-0.041 -3.988,-0.921 -7.984,0.484c-0.426,0.15 -2.849,1.002 -4.193,3.786c-1.477,3.06 -1.236,5.225 -1.224,7.088Z" style="fill:#f1f5f8;"/><path d="M229.192,182.5c0.006,-0.335 -0.161,-3.873 1.015,-5.169c4.593,-5.064 11.317,-1.084 10.345,6.174c-0.864,6.455 -5.984,6.383 -7.923,5.663c-3.676,-1.367 -3.38,-3.585 -3.437,-6.668Z" style="fill:#38589d;"/><path d="M194.131,184.582c-0.3,-2.6 -0.556,-2.628 0.137,-5.146c0.813,-2.953 2.845,-3.801 3.222,-3.958c5.709,-2.382 8.963,3.938 7.761,8.975c-1.705,7.143 -7.845,5.165 -9.336,3.689c-1.448,-1.433 -1.132,-1.634 -1.783,-3.559Z" style="fill:#38599e;"/><path d="M335.11,181.514c-0.074,2.534 0.023,3.522 -1.664,5.944c-1.826,2.621 -8.739,3.436 -9.815,-3.971c-0.323,-2.223 0.187,-7.063 3.726,-8.331c0.422,-0.151 3.202,-1.147 5.518,0.951c2.102,1.904 2.089,4.361 2.234,5.407Z" style="fill:#37579c;"/><path d="M484.011,175.831c0.097,0.137 2.071,0.854 1.653,7.681c-0.204,3.322 -1.613,3.71 -2.076,4.086c-1.334,1.083 -1.358,1.138 -3.077,1.235c-7.009,0.395 -6.122,-8.531 -5.529,-10.172c1.528,-4.227 5.23,-4.715 7.36,-3.719c0.137,0.064 0.124,0.066 1.669,0.889Z" style="fill:#365699;"/><path d="M346.238,182.499c0.057,5.809 0.283,8.216 -0.882,8.633c-0.198,0.071 -1.77,0.634 -2.087,-1.593c-0.1,-0.702 -0.025,-11.076 -0.018,-12.039c0.004,-0.612 -0.301,-4.03 0.54,-4.525c0.948,-0.558 2.263,0.645 2.664,0.67c1.481,0.094 4.456,-3.148 9.081,-0.196c3.221,2.057 2.855,7.714 2.868,15.049c0,0.259 0.006,3.357 -1.842,2.668c-0.155,-0.058 -1.061,-0.396 -1.261,-1.63c-0.422,-2.595 0.981,-10.849 -1.44,-13.361c-2.205,-2.287 -6.875,-0.89 -7.444,2.31c-0.22,1.236 -0.115,1.224 -0.178,4.014Z" style="fill:#f1f4f7;"/><path d="M261.137,181.519c-0.047,2.295 0.104,3.56 -1.606,6.004c-1.515,2.165 -6.955,3.65 -8.939,-2.056c-1.803,-5.187 1.203,-12.484 6.987,-10.129c1.464,0.596 2.428,2.114 2.577,2.35c0.553,0.871 0.935,3.518 0.98,3.831Z" style="fill:#37589d;"/><path d="M375.501,191.246c-0.479,-0.056 -2.526,0.265 -2.855,-1.767c-0.138,-0.852 -0.186,-22.322 -0.066,-22.96c0.036,-0.189 0.332,-1.764 2.034,-1.285c1.169,0.329 0.883,3.396 0.917,9.266c0.066,11.173 -0.109,12.994 0.408,13.656c0.853,1.091 8.687,0.373 9.497,0.637c1.225,0.399 1.524,0.521 1.187,1.772c-0.276,1.026 -5.055,0.773 -11.122,0.681Z" style="fill:#f9fbfc;"/><path d="M300.181,178.502c-0.057,-1.791 -0.014,-1.787 -0.061,-1.934c-0.311,-0.975 -0.451,-0.891 -1.305,-1.468c-1.67,-1.127 -0.188,-2.147 -0.04,-2.249c0.22,-0.151 0.531,-0.168 0.713,-0.363c0.765,-0.824 0.544,-0.93 0.694,-2.033c0.033,-0.246 0.356,-2.633 2.35,-2.029c0.678,0.206 0.793,1.911 0.806,2.089c0.182,2.691 1.267,2.022 3.139,2.176c0.186,0.015 2.15,0.177 1.648,1.658c-0.51,1.503 -4.228,0.017 -4.726,2.126c-0.121,0.515 -0.07,7.917 -0.035,9.028c0.122,3.883 1.986,3.406 3.241,3.699c0.147,0.034 1.367,0.319 1.326,1.336c-0.051,1.259 -2.198,1.224 -2.414,1.22c-6.18,-0.1 -5.329,-5.865 -5.335,-13.256Z" style="fill:#f4f5f9;"/><path d="M441.175,178.5c-0.007,-0.362 0.128,-2.113 -0.516,-3.129c-0.417,-0.658 -0.81,-0.167 -1.24,-0.804c-0.64,-0.948 -0.631,-1.155 0.24,-1.884c0.197,-0.165 0.5,-0.173 0.689,-0.347c0.296,-0.272 0.607,-0.578 0.732,-0.96c0.203,-0.62 0.076,-1.308 0.219,-1.945c0.062,-0.277 0.199,-0.545 0.387,-0.758c0.653,-0.739 2.063,-0.515 2.387,0.084c0.128,0.237 0.084,0.249 0.252,1.767c0.237,2.138 1.058,1.576 3.196,1.853c2.377,0.307 1.652,1.707 1.562,1.881c-0.253,0.488 -2.437,0.73 -2.656,0.754c-2.423,0.268 -2.12,1.049 -2.126,3.489c-0.017,7.919 -0.131,9.664 2.1,10.289c1.763,0.494 2.709,0.044 2.386,1.829c-0.158,0.872 -2.094,0.841 -2.289,0.838c-6.082,-0.097 -5.272,-5.58 -5.323,-12.956Z" style="fill:#f1f5f8;"/><path d="M269.312,177.502c-0.007,-0.245 -0.081,-3.059 -0.081,-3.059c0.394,-2.852 2.163,-1.128 2.307,-0.988c0.195,0.19 0.144,0.539 0.304,0.759c0.898,1.24 2.553,-0.966 3.735,-1.527c1.731,-0.822 3.4,1.308 0.862,2.695c-0.252,0.138 -2.003,1.094 -2.863,2.163c-2.312,2.876 -0.619,10.848 -1.389,12.817c-0.279,0.715 -1.694,1.47 -2.634,0.109c-0.094,-0.136 -0.342,-0.142 -0.241,-12.969Z" style="fill:#eef3f7;"/><path d="M432.061,178.501c-0.006,-1.795 -0.102,-4.283 0.268,-5.115c0.187,-0.42 1.481,-1.38 2.492,-0.163c0.513,0.617 0.4,2.587 0.399,5.276c-0.002,11.6 0.1,11.85 -0.59,12.166c-0.154,0.07 -1.355,0.62 -2.108,-0.185c-0.55,-0.588 -0.451,-1.876 -0.461,-11.979Z" style="fill:#f8fcfd;"/><path d="M215.693,174.326c0.046,0.179 0.58,2.24 0.58,2.24c0.279,0.431 0.946,0.502 1.225,0.933c-0.495,0.903 -1.324,0.862 -1.354,4.997c-0.041,5.498 0.298,8.172 -0.789,8.727c-2.214,1.13 -2.236,-2.432 -2.238,-2.714c-0.026,-4.266 0.077,-10.736 -0.042,-13.039c-0.057,-1.11 -0.395,-1.236 0.356,-2.041c0.108,-0.116 0.903,-0.968 1.97,0.187c0.174,0.188 0.117,0.522 0.291,0.71Z" style="fill:#f0f5f6;"/><path d="M312.868,186.499c0.002,-6.034 -0.016,-11.893 -0.002,-11.957c0.588,-2.716 2.543,-1.274 2.702,-1.097c0.364,0.407 0.351,2.804 0.349,3.049c-0.069,12.307 0.492,14.664 -1.428,14.744c-2.139,0.089 -1.62,-4.625 -1.621,-4.74Z" style="fill:#f3f7f9;"/><path d="M282.857,186.484c0.183,-0.739 -0.306,-1.653 1.545,-3.111c0.268,-0.211 1.356,-1.068 4.071,-1.278c2.506,-0.194 3.252,-0.093 3.17,2.409c-0.069,2.105 -0.505,3.395 -3.299,4.567c-0.159,0.067 -2.651,0.848 -4.13,-0.19c-1.392,-0.977 -1.311,-2.281 -1.357,-2.398Z" style="fill:#37579b;"/><path d="M394.086,177.502c0.012,11.352 0.196,13.058 -0.818,13.506c-1.926,0.851 -1.962,-2.246 -1.965,-2.501c-0.013,-1.123 -0.148,-12.889 -0.018,-14.038c0.239,-2.113 2.286,-2.63 2.706,-0.073c0.04,0.245 0.007,0.23 0.095,3.106Z" style="fill:#ebf0f5;"/><path d="M459.5,179.799c-2.568,-0.018 -3.969,0.075 -2.989,-2.294c1.366,-3.303 7.112,-4.857 8.465,-0.101c0.049,0.171 0.527,1.854 -0.411,2.19c-0.746,0.268 -4.681,0.202 -5.064,0.205Z" style="fill:#365599;"/><path d="M78.759,135.73c1.313,-1.052 1.117,-1.67 2.779,-1.487c0.833,0.092 1.728,1.194 1.789,1.339c0.649,1.551 0.231,1.598 -0.679,3.025c-0.28,0.439 -3.425,5.373 -5.922,2.706c-1.493,-1.595 0.35,-3.615 2.033,-5.584Z" style="fill:#395a9e;"/><path d="M89.42,146.43c-1.652,1.993 -2.117,2.93 -3.981,1.124c-1.514,-1.468 -0.726,-1.809 0.588,-3.447c0.686,-0.856 0.628,-0.879 1.342,-1.718c2.666,-3.131 4.608,0.427 3.798,1.958c-0.102,0.192 -0.273,0.515 -1.747,2.084Z" style="fill:#38589d;"/><path d="M215.693,174.326c0.275,0.001 0.531,0.174 0.806,0.175c0.925,0.004 1.22,-0.653 1.941,-1.084c0.239,-0.143 2.852,-1.704 3.479,-0.126c0.059,0.149 0.436,1.097 -0.614,1.905c-0.864,0.665 -1.228,0.082 -3.806,2.302c-0.279,-0.431 -0.946,-0.502 -1.225,-0.933c0,0 -0.533,-2.061 -0.58,-2.24Z" style="fill:#cfd8e4;"/><path d="M432.679,165.707c0.289,-0.04 0.493,-0.351 0.782,-0.391c0.184,-0.026 1.712,-0.238 1.992,1.199c0.471,2.417 -3.858,2.577 -3.253,-0.13c0.06,-0.27 0.42,-0.408 0.48,-0.678Z" style="fill:#f2f5f8;"/><path d="M313.675,165.789c0.286,-0.004 0.542,-0.22 0.828,-0.224c0.891,-0.013 1.578,0.937 1.616,1.078c0.522,1.95 -2.518,2.828 -3.247,0.791c-0.345,-0.964 0.139,-0.872 0.803,-1.645Z" style="fill:#eff2f6;"/><path d="M391.822,165.833c0.251,-0.046 0.411,-0.339 0.663,-0.386c0.208,-0.038 2.308,-0.424 1.757,1.978c-0.336,1.462 -3.429,1.36 -2.831,-0.961c0.063,-0.243 0.349,-0.388 0.411,-0.631Z" style="fill:#eef2f7;"/></g></svg>