<?xml version="1.0" encoding="UTF-8" standalone="no"?><!DOCTYPE svg PUBLIC "-//W3C//DTD SVG 1.1//EN" "http://www.w3.org/Graphics/SVG/1.1/DTD/svg11.dtd"><svg width="100%" height="100%" viewBox="0 0 500 200" version="1.1" xmlns="http://www.w3.org/2000/svg" xmlns:xlink="http://www.w3.org/1999/xlink" xml:space="preserve" xmlns:serif="http://www.serif.com/" style="fill-rule:evenodd;clip-rule:evenodd;stroke-linejoin:round;stroke-miterlimit:2;"><g id="Logo-Vectors" serif:id="Logo Vectors"></g><g id="Refernce"><path d="M-11.97,369.43l0,-541.371c0.338,-0.338 0.433,-0 5.973,-0l537.026,0c0.261,0.156 0,0.236 0,3.801l0,539.198c-0.156,0.261 -0.236,0 -3.8,0l-539.199,0c-0.465,-0.279 0,-1.085 0,-1.628Z" style="fill:#fefefe;"/><path d="M95.284,86.853c4.171,5.783 1.023,8.101 4.173,9.769c0.316,0.167 7.852,2.689 11.002,6.546c0.468,0.573 1.897,1.756 1.614,6.688c-0.034,0.6 -0.195,3.4 -4.292,6.16c-5.3,3.57 -12.482,2.873 -13.72,4.815c-0.471,0.74 -0.496,0.804 -0.455,15.112c0.02,6.922 0.407,8.732 -0.882,9.615c-0.801,0.549 -0.884,0.469 -19.446,0.518c-36.996,0.097 -37.012,0.197 -40.192,-0.281c-1.773,-0.266 -8.185,-1.988 -10.572,-3.71c-0.755,-0.545 -5.326,-4.796 -6.626,-6.283c-5.452,-6.237 -4.738,-11.067 -4.744,-30.269c-0.001,-2.78 -0.01,-31.264 0.259,-34.751c0.206,-2.67 1.765,-7.763 5.884,-11.467c4.964,-4.465 6.609,-5.3 7.265,-5.633c6.74,-3.424 14.701,-2.878 45.469,-2.88c45.532,-0.004 45.655,-0.154 49.988,1.427c4.774,1.742 7.8,2.961 12.445,8.304c6.093,7.009 5.221,14.776 5.198,39.57c-0.021,23.146 0.606,25.457 -2.185,31.632c-1.858,4.11 -5.8,7.395 -6.426,7.917c-10.026,8.355 -20.726,6.634 -21.731,5.671c-0.732,-0.7 -0.977,-0.935 -0.669,-12.645c0.142,-5.39 2.713,-3.696 9.251,-7.076c1.365,-0.706 8.946,-4.625 9.275,-16.822c0.291,-10.792 -7.008,-17.423 -11.628,-19.677c-3.915,-1.91 -4.627,-1.394 -6.371,-5.377c-1.91,-4.363 -2.308,-4.128 -5.719,-7.444c-8.529,-8.29 -11.988,-12.097 -32.515,-10.947c-3.488,0.195 -11.431,1.968 -17.105,6.853c-4.99,4.296 -6.61,5.841 -10.103,12.68c-2.229,4.366 -6.925,3.474 -12.279,9.452c-7.509,8.384 -5.445,23.777 3.988,31.423c5.627,4.56 12.668,6.655 25.655,3.436c0.979,-0.243 6.891,-2.041 9.669,-4.321c3.316,-2.722 3.322,-6.108 8.784,-7.642c4.059,-1.14 5.789,-0.917 10.215,-7.096c3.503,-4.891 1.205,-6.478 0.755,-6.789c-2.475,-1.71 -4.444,-1.915 -4.502,-1.941c-0.407,-0.178 -0.702,-0.619 -0.747,-0.687c-0.223,-0.334 0.016,-0.406 -0.201,-0.731c-1.37,-0.963 -2.879,-2.052 -3.128,-2.231c-1.668,-1.203 -1.757,-1.008 -3.605,-1.83c0.531,-0.207 0.996,-0.561 1.527,-0.769c0.408,-0.159 1.892,-0.159 3.242,-1.282c3.959,-3.295 0.641,-6.589 -2.293,-5.432c-3.176,1.252 -3.267,3.987 -3.315,4.085c-0.289,0.595 -0.796,1.068 -1.085,1.663c-0.198,-0.034 -1.988,-0.932 -4.538,0.236c-0.86,0.394 -4.695,3.711 -5.618,7.785c-1.248,5.513 0.962,10.427 -6.34,15.02c-1.452,0.914 -6.433,2.419 -8.477,2.072c-15.938,-2.713 -14.208,-16.431 -7.442,-19.861c2.505,-1.27 7.254,-3.169 8.131,-4.014c2.838,-2.73 0.48,-4.519 7.022,-10.333c5.536,-4.92 6.669,-6.319 11.718,-8.017c3.596,-1.21 13.269,-1.879 21.506,4.926c2.466,2.037 4.551,4.446 4.913,4.865Z" style="fill:#17273b;"/><path d="M345.926,66.898c1.49,-0.072 7.339,-0.667 11.536,2.212c3.118,2.139 4.32,5.23 5.391,1.592c0.225,-0.764 -0.23,-20.306 0.236,-21.702c0.569,-1.706 4.849,-2.665 5.207,1.188c0.242,2.601 0.171,40.375 0.155,41.221c-0.229,12.131 1.116,16.268 -3.083,15.713c-2.614,-0.345 -2.382,-1.094 -2.468,-3.727c-0.007,-0.206 -0.087,-2.629 -1.783,-1.853c-1.575,0.72 -0.928,2.232 -6.651,4.891c-9.038,4.2 -16.862,-0.034 -20.33,-3.307c-7.582,-7.158 -6.256,-23.016 -0.692,-29.508c5.554,-6.48 11.212,-6.488 12.483,-6.721Z" style="fill:#172433;"/><path d="M449.053,66.815c0.691,-0 6.148,-0.001 8.577,0.973c8.574,3.441 8.095,10.7 8.108,22.543c0.016,14.089 0.206,14.114 -0.125,15.292c-0.558,1.983 -3.304,1.506 -3.61,1.453c-2.774,-0.482 -1.933,-2.51 -2.05,-3.727c-0.157,-1.627 -0.735,-1.739 -2.174,-0.975c-0.71,0.377 -1.023,1.104 -1.549,1.569c-5.965,5.281 -15.264,5.021 -21.357,0.558c-3.696,-2.707 -6.009,-13.379 3.477,-18.132c5.259,-2.635 17.511,-3.035 19.352,-3.707c3.446,-1.257 1.138,-8.155 -1.09,-9.674c-2.791,-1.903 -4.494,-1.87 -5.424,-1.931c-7.386,-0.489 -12.835,2.476 -13.118,2.559c-2.595,0.759 -2.961,-2.853 -0.051,-4.232c4.819,-2.285 10.132,-2.528 11.038,-2.569Z" style="fill:#16222e;"/><path d="M397.907,66.957c12.569,2.743 11.699,8.227 11.703,26.629c0.002,10.6 0.212,11.986 -0.821,12.95c-0.086,0.08 -4.365,1.924 -4.925,-2.169c-0.234,-1.712 0.155,-2.612 -1.539,-2.281c-0.95,0.186 -6.738,8.545 -18.366,5.327c-10.128,-2.803 -10.641,-16.249 -2.343,-20.511c5.337,-2.741 8.66,-2.469 16.282,-3.618c3.91,-0.589 6.273,-0.293 5.428,-4.887c-0.406,-2.21 -1.408,-9.12 -14.09,-6.98c-3.491,0.589 -7.399,2.621 -8.561,1.48c-2.257,-2.216 2.753,-4.238 3.155,-4.4c5.648,-2.279 12.145,-1.651 14.078,-1.54Z" style="fill:#16232f;"/><path d="M232.279,101.188c-0.01,1.2 0.535,5.394 -2.602,5.616c-3.346,0.236 -2.977,-3.113 -2.986,-11.044c-0.007,-6.38 0.9,-19.131 -2.917,-22.292c-1.65,-1.367 -7.474,-3.9 -12.472,-1.371c-2.997,1.516 -6.207,3.975 -6.854,10.606c-0.251,2.579 0.261,21.446 -0.274,22.675c-0.927,2.13 -4.869,2.505 -5.351,-0.87c-0.366,-2.563 -0.074,-15.057 -0.043,-16.366c0.225,-9.628 -0.429,-14.277 -7.032,-16.547c-2.361,-0.812 -6.655,-0.979 -9.842,1.404c-2.725,2.038 -3.199,2.834 -3.388,3.152c-3.557,5.986 -2.008,16.044 -2.225,28.289c-0.014,0.797 0.163,2.77 -3.083,2.823c-2.829,0.047 -2.782,-2.65 -2.805,-3.899c-0.022,-1.165 0.131,-17.473 0.036,-24.978c-0.028,-2.184 0.04,-2.166 -0.035,-4.355c-0.157,-4.577 -0.097,-6.512 2.781,-6.651c4.486,-0.216 2.186,4.325 3.436,5.406c1.499,1.296 2.596,-2.591 7.26,-4.504c10.872,-4.459 16.979,2.549 17.558,3.576c0.88,1.56 1.474,3.529 4.022,0.831c1.587,-1.68 1.787,-2.408 5.577,-4.401c0.382,-0.201 8.088,-3.812 15.658,0.945c0.083,0.052 3.211,1.128 4.904,7.036c0.742,2.589 0.656,8.67 0.677,24.919Z" style="fill:#1f2b3c;"/><path d="M334.636,89.264c-0.075,-3.527 -0.212,-4.578 1.017,-8.842c2.932,-10.171 15.722,-12.118 23.026,-6.136c0.583,0.478 3.891,3.187 4.151,8.462c0.704,14.296 -3.592,16.39 -4.264,17.028c-7.163,6.802 -15.924,2.914 -16.938,2.304c-6.632,-3.987 -6.856,-11.423 -6.992,-12.816Z" style="fill:#f9fbfa;"/><path d="M242.802,101.129c-1.71,-4.156 -1.781,-4.153 -2.303,-8.627c-0.301,-2.581 -0.2,-21.245 -0.155,-21.738c0.416,-4.555 4.658,-3.203 5.148,-2.739c2.363,2.238 -1.121,22.641 2.859,30.885c3.215,6.658 13.374,4.857 15.926,3.111c3.977,-2.72 4.975,-5.769 5.18,-6.395c1.936,-5.915 0.346,-22.667 1.036,-26.023c0.662,-3.217 4.836,-2.314 5.424,-0.802c0.404,1.038 0.389,1.07 0.343,13.923c-0.038,10.461 0.279,19.697 -0.227,21.659c-0.879,3.406 -4.899,3.26 -5.474,1.29c-0.683,-2.34 0.551,-4.124 -1.811,-3.457c-0.154,0.043 -0.136,0.068 -2.305,2.072c-6.209,5.734 -15.165,3.649 -18.186,2.077c-3.683,-1.916 -4.174,-3.065 -5.455,-5.236Z" style="fill:#1a2637;"/><path d="M301.293,71.719c-3.292,1.508 -3.251,1.598 -5.844,4.124c-4.899,4.77 -2.756,13.763 -3.215,28.584c-0.13,4.197 -4.686,2.719 -5.291,1.244c-0.73,-1.778 -0.314,-20.093 -0.339,-32.713c-0.003,-1.695 -0.757,-5.338 2.781,-5.573c4.698,-0.312 1.52,6.201 4.333,5.779c1.336,-0.2 4.231,-7.025 16.268,-6.286c6.788,0.417 9.503,5.177 9.964,5.984c1.089,1.909 1.086,2.307 1.424,3.197c1.54,5.221 0.855,5.319 1.102,24.041c0.044,3.329 0.352,5.712 -2.718,6.331c-3.497,0.705 -3.294,-2.262 -3.298,-3.067c-0.105,-20.181 0.968,-23.169 -2.045,-28.266c-2.593,-4.387 -9.389,-4.444 -11.883,-3.79c-0.421,0.11 -0.818,0.302 -1.239,0.412Z" style="fill:#1a2738;"/><path d="M424.759,91.415c0.008,13.938 0.153,14.145 -0.801,15.08c-0.669,0.656 -4.618,1.244 -5.113,-1.022c-0.139,-0.638 -0.075,-0.647 -0.087,-34.694c-0.007,-18.961 -0.015,-18.959 0.163,-20.598c0.429,-3.949 4.981,-2.741 5.511,-1.288c0.239,0.656 0.35,0.68 0.327,42.522Z" style="fill:#15212f;"/><path d="M451.228,87.442c6.221,-0.556 8.672,-2.022 8.511,2.881c-0.194,5.877 -1.586,8.865 -6.45,11.769c-5.288,3.156 -15.81,1.921 -15.551,-6.347c0.162,-5.176 3.943,-6.3 5.761,-6.843c3.793,-1.133 3.796,-1.076 7.729,-1.46Z" style="fill:#f8fbfb;"/><path d="M389.292,103.539c-0.341,-0.065 -5.269,-0.37 -6.816,-4.379c-1.407,-3.646 0.049,-7.273 1.611,-8.589c2.706,-2.28 8.345,-2.973 9.599,-3.045c3.257,-0.187 3.227,-0.328 6.464,-0.686c3.741,-0.413 3.908,0.853 3.625,4.599c-0.47,6.233 -3.326,8.205 -3.715,8.559c-4.655,4.23 -8.192,3.643 -10.767,3.541Z" style="fill:#f8fafa;"/><path d="M235.113,130.517c-0.795,1.557 -0.456,2.16 -3.031,3.763c-3.647,2.271 -7.439,-1.529 -7.929,1.648c-0.082,0.532 0.542,5.595 -2.084,5.675c-1.941,0.059 -2.066,-2.158 -2.08,-2.412c-0.048,-0.859 -0.039,-14.662 0.143,-16.257c0.262,-2.301 2.109,-2.464 3.934,-1.762c0.569,0.219 0.566,0.214 1.158,0.079c1.737,-0.395 6.063,-2.299 9.065,1.419c0.185,0.229 1.076,1.333 1.255,3.46c0.186,2.215 -0.006,2.201 -0.431,4.387Z" style="fill:#222e3b;"/><path d="M464.565,122.906c0.063,9.806 0.275,11.672 -1.399,11.99c-1.286,0.244 -1.599,-0.863 -4.409,-0.332c-0.351,0.066 -0.695,0.168 -1.046,0.239c-3.374,0.686 -8.348,-0.367 -8.295,-6.476c0.022,-2.472 0.2,-4.273 2.094,-6.142c0.014,-0.014 2.601,-2.145 5.228,-1.903c0.357,0.033 1.815,0.418 2.06,0.534c0.817,0.387 0.829,0.7 1.384,0.326c1.482,-0.999 0.01,-6.475 1.709,-7.267c2.549,-1.188 2.672,2.202 2.682,2.495c0.023,0.629 -0.005,6.013 -0.007,6.535Z" style="fill:#1a2029;"/><path d="M239.129,128.371c0.185,-2.128 -0.168,-2.23 0.845,-4.103c0.983,-1.819 2.336,-2.549 2.599,-2.691c3.502,-1.888 5.497,-1.344 5.619,-1.325c10.02,1.578 8.47,15.098 -1.153,14.856c-7.426,-0.187 -7.866,-6.567 -7.91,-6.737Z" style="fill:#252d35;"/><path d="M325.098,126.197c0.098,1.418 0.988,5.091 -3.996,8.023c-3.676,2.163 -12.847,0.983 -11.52,-8.128c0.633,-4.343 6.603,-7.961 12.466,-4.389c0.901,0.549 1.598,1.411 1.714,1.555c0.766,0.948 0.596,1.021 1.336,2.939Z" style="fill:#202732;"/><path d="M197.102,134.97c-0.061,0.003 -0.95,0.15 -2.192,0.104c-7.993,-0.293 -10.365,-9.811 -3.467,-13.73c7.346,-4.173 15.121,3.975 10.4,10.57c-1.939,2.709 -3.651,2.732 -4.742,3.055Z" style="fill:#252d3c;"/><path d="M432.161,127.315c0.612,-2.109 0.476,-2.155 1.033,-3.058c4.036,-6.535 12.567,-4.242 12.973,1.874c0.157,2.364 -0.195,2.75 -2.56,2.908c-5.071,0.34 -5.075,0.191 -5.515,0.225c-2.503,0.192 -0.91,2.049 -0.788,2.191c1.302,1.518 6.656,0.416 7.288,1.296c1.824,2.537 -6.31,3.534 -9.622,0.942c-3.169,-2.48 -2.767,-5.893 -2.809,-6.378Z" style="fill:#1f252c;"/><path d="M183.843,132.787c-0.04,0.234 0.771,1.807 -1.944,2.168c-10.211,1.355 -15.95,-5.387 -13.171,-13.182c2.485,-6.97 10.751,-7.114 10.957,-7.096c5.684,0.503 4.503,2.406 4.265,2.733c-1.271,1.744 -4.312,-1.577 -9.669,2.242c-2.823,2.012 -2.221,7.929 -0.905,9.642c2.205,2.871 4.74,2.655 6.329,2.651c2.2,-0.005 2.396,-0.513 4.137,0.842Z" style="fill:#242d36;"/><path d="M333.338,129.422c0.045,1.222 0.737,6.092 -2.655,5.351c-1.828,-0.399 -1.534,-2.76 -1.491,-8.608c0.003,-0.35 0.026,-3.575 0.364,-4.357c0.725,-1.679 4.51,-0.371 4.532,-0.371c0.25,-0.002 0.206,-0.176 3.007,-0.871c0.431,-0.107 3.523,-0.874 5.377,1.372c1.497,1.813 2.54,11.981 0.076,12.76c-2.22,0.701 -2.472,-1.707 -2.498,-1.959c-0.092,-0.883 0.805,-10.138 -2.993,-9.437c-0.169,0.031 -0.149,0.054 -2.033,0.706c-1.757,0.607 -1.646,4.992 -1.685,5.414Z" style="fill:#202832;"/><path d="M396.226,122.377c0.388,0.587 0.776,1.174 1.164,1.761c-2.391,6.512 0.075,8.989 -1.822,10.384c-0.364,0.268 -2.577,1.086 -2.79,-1.862c-0.203,-2.816 1.063,-7.623 -2.137,-9.142c-0.64,-0.304 -0.657,-0.116 -1.347,0.054c-1.342,0.331 -2.87,0.029 -2.992,3.695c-0.012,0.346 -0,0.321 -0.004,4.331c-0.187,1.9 0.179,2.062 -0.648,2.823c-0.101,0.093 -2.988,1.815 -3.287,-1.683c-0.022,-0.262 0.011,-9.568 0.059,-9.893c0.453,-3.092 3.604,-1.544 4.611,-1.632c3.198,-0.279 4.4,-1.936 7.92,0.24c0.682,0.422 0.633,0.46 1.274,0.925Z" style="fill:#1f2730;"/><path d="M361.66,123.995c-0.015,5.856 -0.872,7.767 3.749,7.848c0.721,0.013 1.443,-0.011 2.164,-0.001c0.198,0.003 2.134,0.03 2.379,0.702c0.733,2.01 -1.029,2.401 -1.244,2.448c-0.941,0.209 -8.494,0.185 -9.722,-0.342c-1.024,-0.44 -1.45,-0.67 -1.348,-11.745c0.057,-6.192 0.12,-6.317 0.922,-7.016c0.665,-0.579 2.531,-0.748 2.935,1.503c0.058,0.324 0.036,0.317 0.164,6.603Z" style="fill:#18202a;"/><path d="M422.046,128.337c-0.062,-1.634 0.181,-1.647 -0.292,-3.211c-0.557,-1.838 -3.579,-2.379 -1.109,-4.536c1.724,-1.506 2.355,-2.843 3.424,-3.056c1.876,-0.373 2.269,1.883 2.341,2.004c0.611,1.022 3.002,1.171 3.102,2.281c0.122,1.357 -2.41,2.066 -2.751,2.548c-0.779,1.101 -0.644,5.321 -0.464,6.131c0.52,2.347 2.998,1.695 3.032,3.27c0.006,0.267 0.038,1.75 -3.103,1.241c-4.701,-0.762 -4.136,-5.526 -4.179,-6.672Z" style="fill:#16202c;"/><path d="M291.654,133.669c-3.067,-3.96 -0.733,-5.765 -1.846,-8.754c-0.671,-1.802 -3.77,-2.094 -0.772,-4.552c0.74,-0.607 2.758,-3.795 4.471,-2.553c0.204,0.148 0.157,0.179 0.743,1.525c0.545,1.25 2.382,1.397 2.603,1.577c1.67,1.354 -0.393,2.391 -0.575,2.483c-0.456,0.229 -0.992,0.339 -1.373,0.679c-0.321,0.286 -1.211,1.08 -0.738,5.323c0.421,3.77 3.216,2.613 3.218,4.389c0.002,1.685 -3.294,1.331 -4.562,0.67c-0.416,-0.217 -0.752,-0.568 -1.168,-0.785Z" style="fill:#1a2630;"/><path d="M279.212,125.978c0.043,-0.331 0.416,-0.559 0.459,-0.89c0.017,-0.13 0.115,-0.879 -0.723,-1.464c-2.097,-1.465 -5.228,0.382 -6.144,-0.384c-0.292,-0.244 -1.941,-2.257 3.628,-3.078c2.575,-0.38 5.514,1.663 5.934,2.123c2.113,2.315 1.379,11.097 0.859,11.742c-1.299,1.611 -3.369,0.137 -3.753,0.003c-0.287,-0.786 -0.574,-1.572 -0.86,-2.357c0.175,-0.159 0.472,-0.133 0.647,-0.292c0.128,-0.116 0.877,-0.797 0.82,-2c-0.018,-0.387 -0.364,-0.711 -0.383,-1.098c-0.161,-0.768 -0.322,-1.537 -0.483,-2.305Z" style="fill:#1f2834;"/><path d="M263.488,127.264c0.073,4.728 0.432,7.016 -1.286,7.443c-2.321,0.577 -2.729,-1.794 -2.776,-2.067c-0.031,-0.182 -0.016,-0.165 0.047,-8.637c0.002,-0.236 0.018,-2.37 0.868,-2.822c0.86,-0.456 3.188,0.073 4.081,-0.132c0.729,-0.167 1.398,-0.563 2.136,-0.684c0.149,-0.025 1.443,-0.238 1.79,0.593c0.61,1.46 -1.402,2.168 -1.61,2.241c-3.44,1.21 -2.738,2.058 -3.249,4.065Z" style="fill:#262d37;"/><path d="M211.515,129.414c0.012,1.669 0.392,4.377 -1.46,5.198c-0.063,0.028 -2.29,0.531 -2.534,-1.844c-0.126,-1.225 -0.01,-9.822 0.01,-9.937c0.52,-3.001 2.966,-1.155 5.873,-1.955c1.76,-0.485 1.75,-0.586 2.248,-0.517c0.139,0.019 1.12,0.154 0.974,1.462c-0.178,1.609 -3.658,1.383 -4.527,3.166c-1.003,2.058 -0.594,2.15 -0.583,4.427Z" style="fill:#24293e;"/><path d="M396.226,122.377c1.819,-1.157 1.761,-1.297 3.857,-1.826c3.245,-0.818 6.298,0.815 6.521,5.616c0.37,7.982 -0.422,8.298 -1.062,8.553c-2.897,1.154 -2.726,-2.788 -2.712,-3.118c0.016,-0.381 0.675,-7.475 -1.909,-8.212c-0.975,-0.278 -0.962,-0.016 -1.914,0.341c-0.798,0.299 -0.806,0.203 -1.617,0.407c-0.388,-0.587 -0.776,-1.174 -1.164,-1.761Z" style="fill:#1f2832;"/><path d="M243.098,128.326c0.016,-0.183 0.204,-2.289 0.204,-2.289c0.727,-2.83 3.86,-3.069 4.734,-2.802c5.151,1.577 3.963,9.186 -0.974,8.97c-4.279,-0.188 -3.845,-3.36 -3.964,-3.88Z" style="fill:#f5f7f9;"/><path d="M191.282,128.345c0.03,-0.371 -0.019,-0.745 0.011,-1.116c0.429,-5.366 7.943,-5.251 8.31,-0.002c0.439,6.276 -7.2,6.037 -8.187,2.251c-0.096,-0.368 -0.038,-0.765 -0.134,-1.133Z" style="fill:#f5fafb;"/><path d="M321.088,129.464c-0.192,0.289 -0.152,0.693 -0.344,0.982c-1.896,2.844 -8.228,2.465 -7.606,-3.207c0.56,-5.104 7.921,-5.511 8.075,0.004c0,0 -0.115,2.044 -0.125,2.222Z" style="fill:#f7f9fb;"/><path d="M231.972,128.351c-0.153,0.589 -0.149,4.175 -4.526,3.644c-5.067,-0.614 -3.786,-6.704 -1.942,-7.862c0.133,-0.084 2.732,-0.878 2.985,-0.896c0.831,-0.06 2.998,0.763 3.426,2.913c0.034,0.173 0.004,0.163 0.057,2.201Z" style="fill:#f5f9fc;"/><path d="M411.069,130.51c0.053,-7.767 -0.184,-8.27 0.668,-9.073c0.2,-0.189 3.978,-2.171 3.842,2.561c-0.23,8.007 -0.04,8.005 -0.132,8.695c-0.345,2.587 -2.867,2.558 -3.797,1.545c-0.779,-0.848 -0.431,-0.997 -0.581,-3.729Z" style="fill:#151822;"/><path d="M305.361,128.335c-0.036,3.581 0.041,5.106 -0.42,5.668c-1.196,1.457 -3.654,1.334 -3.841,-1.294c-0.058,-0.814 -0.11,-8.734 0.059,-9.827c0.029,-0.186 0.259,-1.679 1.342,-1.926c0.189,-0.043 1.748,-0.4 2.328,0.691c0.667,1.254 0.506,3.537 0.531,6.687Z" style="fill:#1e2734;"/><path d="M460.737,127.258c-0.095,1.765 0.257,1.844 -0.557,3.409c-0.627,1.206 -4.191,1.976 -5.624,0.841c-1.638,-1.297 -2.357,-6.351 1.269,-8.094c1.357,-0.652 2.915,0.263 3.133,0.39c1.791,1.052 1.469,1.387 1.779,3.454Z" style="fill:#f0f8fb;"/><path d="M279.212,125.978c0.161,0.768 0.322,1.537 0.483,2.305c-0.367,0.029 -0.734,-0.123 -1.101,-0.093c-0.13,0.01 -2.896,0.484 -2.922,0.499c-1.871,1.079 -1.253,2.519 -1.16,2.737c0.593,1.383 3.281,0.475 4.098,0.247c0.287,0.786 0.574,1.572 0.86,2.357c-0.586,0.212 -0.488,0.432 -2.052,0.741c-8.069,1.595 -8.459,-5.539 -4.345,-7.595c3.433,-1.716 6.112,-1.2 6.138,-1.199Z" style="fill:#343b42;"/><path d="M373.748,125.081c0.046,-2.056 0.024,-2.044 0.049,-2.22c0.416,-2.921 3.092,-1.646 3.124,-1.62c0.579,0.466 0.587,3.528 0.588,3.838c0.005,1.688 0.06,7.189 0.021,7.624c-0.023,0.259 -0.238,2.66 -2.357,2.234c-1.759,-0.354 -1.413,-3.363 -1.426,-9.856Z" style="fill:#111623;"/><path d="M74.409,94.174c0.289,-0.595 0.796,-1.068 1.085,-1.663c0.048,-0.098 0.139,-2.834 3.315,-4.085c2.934,-1.156 6.252,2.137 2.293,5.432c-1.35,1.124 -2.834,1.123 -3.242,1.282c-0.531,0.207 -0.996,0.561 -1.527,0.769c-0.641,-0.578 -1.283,-1.157 -1.924,-1.735Z" style="fill:#ebf1f6;"/><path d="M83.798,98.974c-0,-0.005 -1.328,-5.083 4.676,-5.067c5.315,0.014 3.265,5.913 -0.95,6.451c-1.881,0.24 -2.352,-1.08 -2.545,-1.161c-0.369,-0.155 -0.811,-0.068 -1.18,-0.222Z" style="fill:#f2f7fd;"/><path d="M434.982,140.125c-2.946,0.649 -2.923,0.931 -4.502,0.664c-1.711,-0.289 -2.54,0.203 -3.226,0.274c-0.215,0.022 -3.825,0.397 -1.986,-1.838c0.058,-0.071 2.998,0.075 3.186,-0.027c1.324,-0.715 0.806,-1.324 2.122,-2.025c0.326,-0.173 0.749,-0.312 1.093,-0.178c0.223,0.087 0.052,0.509 0.213,0.687c0.22,0.244 0.612,0.269 0.852,0.494c0.389,0.365 0.599,0.898 1.003,1.247c0.36,0.312 0.886,0.389 1.246,0.702Z" style="fill:#fbfcf7;"/><path d="M121.075,45.886c1.927,0.256 1.924,0.218 2.081,0.277c0.121,0.045 0.162,0.221 0.284,0.265c0.286,0.103 0.601,0.095 0.897,0.161c1.93,0.431 1.971,0.242 2.117,0.333c0.274,0.172 0.279,0.583 0.429,0.87c0.344,0.656 0.125,0.91 0.145,1.026c0.022,0.127 0.187,0.193 0.218,0.318c0.25,1.002 -0.068,0.966 -0.212,1.386c-0.05,0.147 0.133,0.359 0.021,0.466c-0.678,0.644 -1.599,-0.378 -1.694,-0.483c-0.441,-0.489 -0.444,-1.396 -1.038,-1.679c-0.383,-0.183 -0.682,0.534 -1.086,0.665c-0.345,0.111 -0.734,0.12 -1.086,0.036c-1.033,-0.247 -0.742,-0.577 -1.045,-1.58c-0.154,-0.511 -0.459,-0.997 -0.467,-1.53c-0.003,-0.229 0.439,-0.301 0.436,-0.529Z" style="fill:#f8f8f2;"/><path d="M279.696,128.283c0.018,0.387 0.364,0.711 0.383,1.098c0.057,1.203 -0.692,1.884 -0.82,2c-0.175,0.159 -0.472,0.133 -0.647,0.292c-0.817,0.228 -3.505,1.135 -4.098,-0.247c-0.094,-0.219 -0.711,-1.658 1.16,-2.737c0.026,-0.015 2.792,-0.489 2.922,-0.499c0.367,-0.029 0.734,0.123 1.101,0.093Z" style="fill:#ecf5fc;"/><path d="M204.424,134.854c0.498,0.5 1.32,0.586 1.817,1.086c0.268,0.269 0.219,0.727 0.344,1.086c0.084,0.241 0.818,2.348 0.173,3.18c-0.604,0.78 -3.646,1.815 -3.352,-2.138c0.026,-0.348 0.146,-0.97 0.162,-1.054c0.26,-1.352 0.819,-2.067 0.856,-2.161Z" style="fill:#fbfdeb;"/><path d="M437.623,126.794c-0.028,-0.067 -1.964,-1.261 0.383,-2.996c2.845,-2.104 5.799,1.89 3.627,2.599c-0.307,0.1 -0.783,0.255 -4.01,0.398Z" style="fill:#e9f2f7;"/><path d="M143.912,63.166c0.06,1.927 0.247,1.93 -0.059,3.263c-0.376,1.641 -1.053,0.395 -1.1,0.389c-0.19,-0.025 -0.375,0.295 -0.539,0.196c-0.224,-0.135 -0.222,-0.474 -0.323,-0.716c-0.335,-0.802 -0.332,-0.803 -1.06,-1.311c-1.08,-0.753 -1.687,-0.519 -1.474,-1.829c0.139,-0.854 1.141,-0.931 1.267,-0.941c1.762,-0.136 1.757,0.038 3.288,0.949Z" style="fill:#faf6f3;"/><path d="M213.681,134.854c0.654,2.133 0.946,2.113 0.673,4.328c-0.017,0.136 -0.172,1.403 -0.825,1.497c-1.332,0.193 -1.449,-0.094 -1.718,-1.416c-0.139,-0.683 -0.005,-1.133 0.015,-1.251c0.189,-1.139 0.15,-1.165 0.885,-2.072c0.306,-0.377 0.665,-0.709 0.97,-1.086Z" style="fill:#fcfeed;"/><path d="M415.12,114.457c0.061,0.298 0.414,0.48 0.476,0.778c0.602,2.918 -4.355,2.939 -3.737,-0.019c0.078,-0.372 1.044,-1.552 2.506,-1.215c0.287,0.066 0.469,0.39 0.755,0.456Z" style="fill:#2a2d2b;"/><path d="M374.318,114.44c0.299,-0.061 0.493,-0.398 0.792,-0.459c2.558,-0.52 3.268,3.026 1.14,3.427c-0.255,0.048 -2.944,0.554 -2.406,-2.184c0.059,-0.299 0.414,-0.484 0.473,-0.783Z" style="fill:#2a2e30;"/><path d="M304.467,114.402c0.111,0.28 0.483,0.401 0.593,0.682c0.716,1.816 -1.68,3.192 -3.169,1.702c-0.936,-0.938 0.174,-2.791 1.635,-2.705c0.331,0.019 0.61,0.302 0.941,0.322Z" style="fill:#232a33;"/><path d="M310.082,80.513c-0.179,-0.187 -0.134,-0.523 -0.313,-0.71c-0.133,-0.139 -0.829,-0.184 -1.338,-1.426c-0.496,-1.211 0.343,-0.92 1.519,-1.489c0.112,-0.054 0.125,-0.274 0.249,-0.277c0.39,-0.01 0.909,-0.068 1.146,0.243c0.248,0.326 -0.12,0.831 -0.023,1.228c0.121,0.497 0.704,0.875 0.662,1.385c-0.044,0.521 -0.768,0.919 -0.859,0.969c-0.483,0.265 -0.557,-0.191 -1.044,0.077Z" style="fill:#f8f8f2;"/><path d="M29.909,130.648c0.217,-0.262 0.349,-0.047 0.574,-0.318c0.62,-0.747 0.38,-0.858 0.444,-0.907c0.356,-0.273 0.854,-0.552 1.28,-0.413c0.19,0.062 1.722,2.205 1.72,2.407c-0.003,0.268 -0.486,0.229 -0.741,0.312c-1.232,0.402 -1.196,0.502 -1.305,0.478c-0.336,-0.074 -0.646,-0.264 -0.916,-0.478c-0.395,-0.312 -0.661,-0.768 -1.056,-1.081Z" style="fill:#0c2231;"/><path d="M173.235,140.878c-0.394,-0.163 -0.853,-0.125 -1.246,-0.288c-0.323,-0.134 -0.526,-0.513 -0.867,-0.588c-1.183,-0.259 -1.114,0.469 -2.328,0.374c-0.844,-0.066 -0.802,-0.364 -0.542,-1.178c0.408,-1.282 0.586,-1.596 1.857,-1.118c0.758,0.285 0.1,0.975 0.873,1.201c0.361,0.106 0.819,-0.216 1.127,-0c0.128,0.09 0.083,0.118 1.127,1.597Z" style="fill:#fefdfa;"/><path d="M83.309,120.396c0.159,0.204 0.487,0.228 0.646,0.432c1.265,1.621 2.093,2.461 0.104,3.006c-0.316,0.087 -0.644,-0.159 -0.929,-0.32c-0.211,-0.119 -0.325,-0.366 -0.525,-0.501c-0.084,-0.056 -0.31,0.048 -0.298,-0.052c0.027,-0.219 0.074,-0.19 1.003,-2.565Z" style="fill:#132235;"/><path d="M266.511,65.438c-0.089,-0.169 -0.417,-0.1 -0.506,-0.269c-0.468,-0.886 0.763,-3.041 1.698,-2.67c2.599,1.03 -0.001,2.436 -0.179,2.533c-0.32,0.173 -0.693,0.233 -1.013,0.406Z" style="fill:#f8f3ef;"/><path d="M162.151,130.391c0.391,0.208 0.935,-0.288 1.326,-0.08c1.578,0.84 0.632,1.907 0.521,2.032c-0.148,0.167 -1.389,0.358 -1.575,0.244c-0.459,-0.28 -0.526,-0.825 -0.536,-0.909c-0.083,-0.675 0.349,-0.612 0.265,-1.288Z" style="fill:#f9f5f1;"/><path d="M175.355,140.363c0.15,-0.311 -0.523,-0.656 -0.373,-0.967c1.363,-2.826 2.595,-0.353 2.691,-0.16c0.225,0.451 -0.168,0.795 -0.221,0.84c-0.127,0.112 -0.148,0.02 -2.098,0.287Z" style="fill:#f4f2f0;"/><path d="M90.661,89.06c-0.384,0.077 -0.787,-0.176 -1.171,-0.099c-0.366,0.074 -0.628,0.423 -0.985,0.532c-0.233,0.071 -2.539,0.777 -2.549,-1.656c-0.001,-0.202 0.104,0.226 2.488,0.427c0.164,0.014 1.608,0.136 2.022,0.385c0.13,0.078 0.066,0.332 0.195,0.41Z" style="fill:#16253e;"/><path d="M135.115,54.659c-0.052,1.845 0.051,1.864 -0.055,1.981c-0.052,0.057 -0.356,0.391 -0.967,0.073c-1.667,-0.869 -1.862,-2.11 0.003,-2.231c0.344,-0.022 0.675,0.2 1.019,0.178Z" style="fill:#f2eeea;"/><path d="M356.556,79.679c0.568,-0.042 0.689,-1.117 1.257,-1.159c0.624,-0.046 1.298,0.411 1.62,0.948c0.174,0.29 -0.234,0.707 -0.534,0.861c-0.28,0.144 -0.624,-0.084 -0.938,-0.104c-0.263,-0.017 -0.545,0.09 -0.79,-0.006c-0.254,-0.099 -0.361,-0.441 -0.615,-0.54Z" style="fill:#f7f7f4;"/><path d="M93.914,114.122c0.763,0.16 0.666,-0.533 1.415,-0.376c0.068,0.014 0.44,0.092 0.42,0.761c-0.013,0.417 -0.069,1.242 -0.478,1.156c-0.67,-0.14 -0.687,-1.4 -1.357,-1.54Z" style="fill:#091e36;"/><path d="M167.468,63.136c0.583,0.46 0.784,-0.39 1.377,0.078c0.063,0.049 0.566,0.447 -0.013,0.999c-0.25,0.238 -0.764,0.213 -1.034,-0.001c-0.294,-0.232 -0.036,-0.843 -0.33,-1.076Z" style="fill:#fbf9f8;"/></g></svg>