<?xml version="1.0" encoding="UTF-8" standalone="no"?><!DOCTYPE svg PUBLIC "-//W3C//DTD SVG 1.1//EN" "http://www.w3.org/Graphics/SVG/1.1/DTD/svg11.dtd"><svg width="100%" height="100%" viewBox="0 0 570 471" version="1.1" xmlns="http://www.w3.org/2000/svg" xmlns:xlink="http://www.w3.org/1999/xlink" xml:space="preserve" xmlns:serif="http://www.serif.com/" style="fill-rule:evenodd;clip-rule:evenodd;stroke-linejoin:round;stroke-miterlimit:2;"><path d="M105.696,0.791c19.683,-0.517 19.679,-0.267 304.017,-0.567c50.562,-0.054 81.133,-4.888 123.95,33.267c14.033,12.504 26.675,37.946 30.633,52.825c5.813,21.862 4.729,22.229 5.062,225.117c0.058,34.942 3.487,68.983 -18.825,103.65c-38.208,59.354 -101.521,54.588 -111.654,54.546c-2.846,-0.013 -11.229,1.158 -12.121,-8.225c-0.283,-3 -0.175,-61.3 -0.167,-66.629c0.029,-16.183 4.854,-14.404 12.208,-16.908c47.608,-16.208 66.946,-55.383 69.104,-79.071c3.571,-39.117 -7.058,-69.363 -36.371,-94.908c-22.654,-19.742 -33.296,-13.504 -39.8,-30.379c-8.683,-22.529 -9.321,-28.979 -37.442,-55.112c-21.1,-19.608 -31.029,-23.767 -43.508,-30.808c-36.192,-20.425 -86.504,-13.396 -99.317,-9.192c-45.033,14.775 -58.775,27.454 -68.079,35.7c-37.279,33.037 -33.092,44.583 -40.608,63.887c-4.404,11.308 -18.938,6.775 -42.346,28.246c-42.367,38.858 -31.3,87.671 -29.625,97.192c2.187,12.446 20.292,65.292 68.679,81.192c36.525,12.004 83.121,-2.429 98.821,-11.717c24.442,-14.458 42.65,-44.196 42.767,-44.325c9.621,-10.558 24.196,3.979 52.462,-26.542c7.392,-7.979 21.521,-28.954 15.217,-37.421c-8.079,-10.854 -11.192,-7.246 -23.3,-18.188c-18.317,-16.558 -22.142,-12.262 -40.288,-27.304c-11.567,-9.592 -14.758,-8.071 -25.887,4.458c-20.867,23.496 -12.321,27.387 -17.5,71.063c-1.75,14.746 -17.192,29.95 -23.754,33.446c-38.421,20.458 -59.65,10.492 -75.621,1.233c-1.817,-1.054 -12.825,-7.433 -18.15,-18.929c-16.521,-35.662 0.471,-57.563 6.087,-65.771c10.879,-15.913 35.942,-19.171 41.071,-22.158c8.783,-5.117 7.442,-27.379 33.692,-57.229c26.425,-30.054 50.938,-35.238 58.708,-37.354c16.713,-4.542 40.888,-2.708 50.113,0.071c22.725,6.846 23.733,5.246 42.433,19.9c46.092,36.121 32.317,68.758 40.717,76.275c1.608,1.438 10.558,2.963 12.758,3.621c26.358,7.871 29.367,14.229 34.012,20.654c15.7,21.729 19.038,43.888 2.65,66.721c-8.404,11.708 -9.117,11.317 -23.896,18.025c-29.242,13.271 -45.062,-0.333 -48.663,8.217c-1.358,3.225 -0.129,116.567 -0.55,120.229c-1.133,9.908 -6.708,8.229 -38.679,8.283c-204.137,0.35 -213.762,0.65 -220.846,0.075c-47.433,-3.842 -63.517,-21.479 -85.871,-43.496c-14.971,-14.746 -26.008,-46.308 -27.517,-69.117c-0.375,-5.692 -0.483,-236.988 -0.475,-237.579c0.333,-42.387 24.446,-74.383 30.417,-79.279c23.679,-19.429 30.054,-31.975 75.283,-39.679l-0.004,-0.004Zm200.925,190.771c-7.013,8.2 -14.692,16.621 -8.471,23.267c10.404,11.108 23.508,-9.446 24.675,-11.275c3.788,-5.946 5.533,-6.142 2.829,-12.604c-0.254,-0.604 -3.983,-5.196 -7.454,-5.579c-6.921,-0.762 -6.108,1.812 -11.579,6.196l0,-0.004Zm44.421,44.583c6.142,-6.538 6.854,-7.883 7.279,-8.683c3.375,-6.379 -4.717,-21.2 -15.825,-8.158c-2.975,3.496 -2.733,3.596 -5.592,7.158c-5.475,6.825 -8.758,8.25 -2.45,14.363c7.762,7.525 9.704,3.621 16.587,-4.683l0,0.004Z" style="fill:url(#_Linear1);"/><defs><linearGradient id="_Linear1" x1="0" y1="0" x2="1" y2="0" gradientUnits="userSpaceOnUse" gradientTransform="matrix(325,316.666667,-316.666667,325,83.329606,54.166003)"><stop offset="0" style="stop-color:#5279d8;stop-opacity:1"/><stop offset="1" style="stop-color:#000;stop-opacity:1"/></linearGradient></defs></svg>