<?xml version="1.0" encoding="UTF-8" standalone="no"?><!DOCTYPE svg PUBLIC "-//W3C//DTD SVG 1.1//EN" "http://www.w3.org/Graphics/SVG/1.1/DTD/svg11.dtd"><svg width="100%" height="100%" viewBox="0 0 500 500" version="1.1" xmlns="http://www.w3.org/2000/svg" xmlns:xlink="http://www.w3.org/1999/xlink" xml:space="preserve" xmlns:serif="http://www.serif.com/" style="fill-rule:evenodd;clip-rule:evenodd;stroke-linejoin:round;stroke-miterlimit:2;"><g id="WhatsApp-Image-2026-03-26-at-14.08.58.jpeg" serif:id="WhatsApp Image 2026-03-26 at 14.08.58.jpeg"><path d="M-73.973,1289.103l0,-2046.841c1.277,-1.277 1.638,0 22.583,0l2030.413,0c0.986,0.592 0,0.892 0,14.371l0,2038.625c-0.591,0.986 -0.892,0 -14.367,0l-2038.629,0c-1.76,-1.055 0,-4.103 0,-6.155Z" style="fill:#fefefe;fill-opacity:0;"/><path d="M252.612,248.403c-1.478,-0.254 -2.843,-0.999 -4.321,-1.253c-13.765,-2.363 -32.943,14.647 -35.527,40.243c-2.336,23.132 1.413,30.866 -20.696,46.707c-1.797,1.288 -8.068,5.78 -26.049,9.231c-14.524,2.787 -63.055,-13.277 -53.632,-52.097c1.748,-7.203 8.621,-16.767 12.984,-20.152c5.412,-4.2 31.441,-14.157 35.43,-17.995c7.146,-6.876 6.705,-21.392 22.177,-35.295c25.278,-22.716 26.01,-23.154 28.605,-24.707c46.67,-27.929 88.936,-3.51 109.954,16.911c23.219,22.557 16.821,29.235 19.982,40.677c2.871,10.392 8.798,4.17 38.622,23.708c23.134,15.156 14.059,40.961 11.029,45.04c-11.731,15.79 -32.733,20.723 -35.998,21.49c-17.684,4.154 -29.661,1.362 -30.046,16.085c-0.489,18.735 0.259,68.058 0.349,73.976c0.249,16.412 -7.207,13.647 -40.166,13.583c-179.556,-0.35 -179.894,1.96 -196.749,-2.676c-28.485,-7.835 -31.07,-9.849 -51.144,-29.955c-26.86,-26.903 -23.968,-39.168 -23.984,-116.471c-0.002,-10.84 -0.025,-122.573 0.974,-135.495c1.26,-16.305 12.266,-33.705 18.03,-39.376c2.837,-2.791 23.391,-20.363 23.987,-20.805c23.229,-17.236 69.986,-15.502 122.126,-15.47c211.671,0.128 211.726,-0.887 229.952,1.614c20.12,2.761 41.806,13.763 51.565,22.666c5.051,4.608 11.101,11.567 12.016,12.619c23.041,26.502 19.738,55.865 19.654,149.607c-0.078,87.512 2.292,96.25 -8.261,119.595c-7.024,15.539 -21.928,27.958 -24.298,29.933c-37.907,31.588 -78.36,25.081 -82.163,21.442c-2.767,-2.648 -3.694,-3.536 -2.529,-47.811c0.536,-20.379 10.256,-13.974 34.978,-26.754c5.161,-2.668 33.825,-17.486 35.069,-63.602c1.101,-40.804 -26.497,-65.876 -43.965,-74.395c-14.805,-7.221 -17.494,-5.271 -24.087,-20.331c-7.222,-16.496 -8.726,-15.608 -21.623,-28.146c-32.245,-31.344 -45.323,-45.737 -122.934,-41.388c-13.186,0.739 -43.22,7.44 -64.671,25.909c-18.866,16.244 -24.992,22.083 -38.197,47.942c-8.429,16.506 -26.183,13.134 -46.425,35.736c-28.39,31.7 -20.588,89.898 15.078,118.805c21.274,17.242 47.897,25.16 96.998,12.992c3.702,-0.917 26.055,-7.718 36.557,-16.338c12.538,-10.29 12.561,-23.094 33.211,-28.894c15.348,-4.31 21.889,-3.466 38.621,-26.828c13.244,-18.493 4.555,-24.494 2.855,-25.668c-9.359,-6.464 -16.804,-7.241 -17.023,-7.337c-1.537,-0.674 -2.652,-2.342 -2.823,-2.597c-0.844,-1.262 0.06,-1.535 -0.762,-2.764c-5.181,-3.642 -10.884,-7.757 -11.827,-8.437c-6.306,-4.55 -6.642,-3.81 -13.629,-6.918c2.007,-0.783 3.767,-2.122 5.774,-2.906c1.541,-0.601 7.153,-0.601 12.256,-4.849c14.969,-12.459 2.423,-24.91 -8.67,-20.539c-12.008,4.732 -12.353,15.074 -12.533,15.446c-1.093,2.251 -3.008,4.036 -4.101,6.287Z" style="fill:#17273b;"/><path d="M252.612,248.403c1.093,-2.251 3.008,-4.036 4.101,-6.287c0.181,-0.372 0.525,-10.714 12.533,-15.446c11.094,-4.372 23.639,8.08 8.67,20.539c-5.104,4.248 -10.716,4.247 -12.256,4.849c-2.007,0.783 -3.767,2.122 -5.774,2.906c-2.425,-2.187 -4.85,-4.373 -7.274,-6.56Z" style="fill:#ebf1f6;"/><path d="M288.112,266.549c-0.001,-0.018 -5.023,-19.217 17.679,-19.159c20.094,0.052 12.344,22.357 -3.593,24.389c-7.112,0.907 -8.892,-4.083 -9.624,-4.39c-1.396,-0.585 -3.066,-0.256 -4.462,-0.841Z" style="fill:#f2f7fd;"/></g></svg>